<svg width="50" height="50" viewBox="0 0 50 50" fill="none" xmlns="http://www.w3.org/2000/svg">
<path d="M0 25C0 11.1929 11.1929 0 25 0C38.8071 0 50 11.1929 50 25C50 38.8071 38.8071 50 25 50C11.1929 50 0 38.8071 0 25Z" fill="#191919"/>
<path fill-rule="evenodd" clip-rule="evenodd" d="M0 25C0 11.1929 11.1929 0 25 0C38.8071 0 50 11.1929 50 25C50 38.8071 38.8071 50 25 50C11.1929 50 0 38.8071 0 25ZM17.6672 20.7061H12.0017V37.7287H17.6672V20.7061ZM18.0404 15.4403C18.0036 13.7713 16.8101 12.5 14.8719 12.5C12.9338 12.5 11.6667 13.7713 11.6667 15.4403C11.6667 17.0748 12.8963 18.3827 14.7984 18.3827H14.8346C16.8101 18.3827 18.0404 17.0748 18.0404 15.4403ZM38.0994 27.9685C38.0994 22.7398 35.3044 20.3064 31.5762 20.3064C28.5681 20.3064 27.2214 21.9586 26.4695 23.1177V20.7065H20.8032C20.8779 22.3039 20.8032 37.7292 20.8032 37.7292H26.4695V28.2223C26.4695 27.7136 26.5062 27.2061 26.656 26.8418C27.0655 25.8255 27.9978 24.7732 29.563 24.7732C31.614 24.7732 32.4338 26.3341 32.4338 28.6216V37.7287H38.0991L38.0994 27.9685Z" fill="#F1F1F1"/>
</svg>
