<svg width="50" height="50" viewBox="0 0 50 50" fill="none" xmlns="http://www.w3.org/2000/svg">
<path d="M10.4167 6.25V5.25C9.86439 5.25 9.41667 5.69772 9.41667 6.25H10.4167ZM39.5833 43.75V44.75C40.1356 44.75 40.5833 44.3023 40.5833 43.75H39.5833ZM10.4167 43.75H9.41667C9.41667 44.3023 9.86439 44.75 10.4167 44.75V43.75ZM29.1667 6.25L29.8738 5.54289C29.6862 5.35536 29.4319 5.25 29.1667 5.25V6.25ZM39.5833 16.6667H40.5833C40.5833 16.4015 40.478 16.1471 40.2904 15.9596L39.5833 16.6667ZM16.6667 34.4167C16.1144 34.4167 15.6667 34.8644 15.6667 35.4167C15.6667 35.969 16.1144 36.4167 16.6667 36.4167V34.4167ZM33.3333 36.4167C33.8856 36.4167 34.3333 35.969 34.3333 35.4167C34.3333 34.8644 33.8856 34.4167 33.3333 34.4167V36.4167ZM16.6667 26.0833C16.1144 26.0833 15.6667 26.531 15.6667 27.0833C15.6667 27.6356 16.1144 28.0833 16.6667 28.0833V26.0833ZM29.1667 28.0833C29.719 28.0833 30.1667 27.6356 30.1667 27.0833C30.1667 26.531 29.719 26.0833 29.1667 26.0833V28.0833ZM39.5833 42.75H10.4167V44.75H39.5833V42.75ZM11.4167 43.75V6.25H9.41667V43.75H11.4167ZM10.4167 7.25H29.1667V5.25H10.4167V7.25ZM38.5833 16.6667V43.75H40.5833V16.6667H38.5833ZM28.4596 6.95711L38.8762 17.3738L40.2904 15.9596L29.8738 5.54289L28.4596 6.95711ZM26.0833 6.25V14.5833H28.0833V6.25H26.0833ZM31.25 19.75H39.5833V17.75H31.25V19.75ZM26.0833 14.5833C26.0833 17.4368 28.3965 19.75 31.25 19.75V17.75C29.5011 17.75 28.0833 16.3322 28.0833 14.5833H26.0833ZM16.6667 36.4167H33.3333V34.4167H16.6667V36.4167ZM16.6667 28.0833H29.1667V26.0833H16.6667V28.0833Z" fill="#191919"/>
</svg>
